# xmcd
#
# Track frame offsets: 
#        150
#        9510
#        34319
#        45212
#        65580
#        83493
#        108785
#        122645
#        134400
#        162264
#
# Disc length: 2354 seconds
#
# Revision: 0
# Processed by: cddbd v1.5.2PL0 Copyright (c) Steve Scherf et al.
# Submitted via: ExactAudioCopyFreeDBPlugin 1.0
#
DISCID=7409300a
DTITLE=Andreas Rohde - Resonance
DYEAR=1883
DGENRE=Western Guitar
TTITLE0=Busy as a bee
TTITLE1=Resonance
TTITLE2=Mr. Coolman
TTITLE3=Growin' old
TTITLE4=The boomerang
TTITLE5=Everytime you're near
TTITLE6=My uncle Oswald
TTITLE7=Third man theme
TTITLE8=The time has come
TTITLE9=barracuda bells
EXTD=
EXTT0=
EXTT1=
EXTT2=
EXTT3=
EXTT4=
EXTT5=
EXTT6=
EXTT7=
EXTT8=
EXTT9=
PLAYORDER=
